<svg width="213" height="69" viewBox="0 0 213 69" fill="none" xmlns="http://www.w3.org/2000/svg">
<path d="M23.9383 14.4653C18.224 14.4653 14.0541 17.5594 12.5097 19.648H12.3552V15.7029H0V69H12.3552V51.3632H12.5097C14.0541 53.4518 18.224 56.546 23.9383 56.546C34.4402 56.546 41.1584 48.5011 41.1584 35.5056C41.1584 22.5101 34.4402 14.4653 23.9383 14.4653ZM20.695 47.2635C15.6757 47.2635 12.5869 43.241 12.5869 35.5056C12.5869 27.7702 15.6757 23.7478 20.695 23.7478C25.7143 23.7478 28.8032 27.7702 28.8032 35.5056C28.8032 43.241 25.7143 47.2635 20.695 47.2635Z" fill="#F9F6F2"/>
<path d="M63.2277 47.2635C58.8261 47.2635 54.7335 44.324 54.7335 38.7545H83.1505C83.1505 24.3666 76.2779 14.4653 62.7644 14.4653C50.1775 14.4653 42.3782 23.4383 42.3782 35.5056C42.3782 47.8823 50.3319 56.546 63.4594 56.546C74.193 56.546 80.3706 51.2859 82.5328 43.3184H70.2547C69.4825 45.2522 67.4748 47.2635 63.2277 47.2635ZM62.7644 22.9742C67.4748 22.9742 70.7953 25.759 70.7953 31.2511H54.7335C54.7335 25.759 58.0539 22.9742 62.7644 22.9742Z" fill="#F9F6F2"/>
<path d="M112.847 0V19.648H112.693C111.148 17.5594 106.978 14.4653 101.264 14.4653C90.7621 14.4653 84.044 22.5101 84.044 35.5056C84.044 48.5011 90.7621 56.546 101.264 56.546C106.978 56.546 111.148 53.4518 112.693 51.3632H112.847V55.3083H125.202V0H112.847ZM104.507 47.2635C99.488 47.2635 96.3992 43.241 96.3992 35.5056C96.3992 27.7702 99.488 23.7478 104.507 23.7478C109.527 23.7478 112.615 27.7702 112.615 35.5056C112.615 43.241 109.527 47.2635 104.507 47.2635Z" fill="#F9F6F2"/>
<path d="M129.373 0V55.3083H141.728V0H129.373Z" fill="#F9F6F2"/>
<path d="M169.623 26.6872C169.623 30.0135 164.603 30.787 159.507 31.7926C150.24 33.6491 144.449 37.2848 144.449 45.1749C144.449 51.8274 149.082 56.546 157.422 56.546C162.673 56.546 167.306 54.0706 169.854 51.1312H170.009C170.009 53.9159 171.553 56.546 177.113 56.546C179.584 56.546 181.824 56.2365 184.295 55.3083V52.3688C182.75 52.3688 181.978 51.5179 181.978 49.4294V31.2511C181.978 18.7971 175.8 14.4653 164.681 14.4653C151.785 14.4653 146.379 20.8857 145.993 28.4664H157.576C157.962 24.676 160.125 22.9742 164.603 22.9742C168.001 22.9742 169.623 24.3666 169.623 26.6872ZM161.746 48.037C158.735 48.037 156.804 46.6446 156.804 43.3957C156.804 40.9204 158.426 38.9092 163.291 37.8262C166.148 37.2074 168.078 36.6659 169.623 36.0471V40.8431C169.623 44.6334 167.074 48.037 161.746 48.037Z" fill="#F9F6F2"/>
<path d="M209.602 15.0067C205.278 15.0067 201.88 17.7915 199.95 22.2007H199.795V15.7029H187.44V55.3083H199.795V36.898C199.795 28.4664 206.513 24.9854 212.846 26.1457H213V15.3161C211.61 15.0067 210.683 15.0067 209.602 15.0067Z" fill="#F9F6F2"/>
</svg>
