<svg width="30" height="38" viewBox="0 0 30 38" fill="none" xmlns="http://www.w3.org/2000/svg">
<path d="M17.6092 7.65875L17.6092 7.65879C18.4395 8.47822 18.8958 9.56671 18.8958 10.7252C18.8958 11.3015 19.3707 11.7684 19.9514 11.7684H22.3838C22.9644 11.7684 23.4394 11.3015 23.4394 10.7252C23.4394 8.36739 22.5087 6.15132 20.8208 4.4847L20.8208 4.48469C19.1506 2.83634 16.9308 1.91823 14.5703 1.9V1.9H14.5695H14.5694H14.5692H14.5691H14.569H14.5688H14.5687H14.5685H14.5684H14.5683H14.5681H14.568H14.5678H14.5677H14.5676H14.5674H14.5673H14.5671H14.567H14.5669H14.5667H14.5666H14.5664H14.5663H14.5662H14.566H14.5659H14.5658H14.5656H14.5655H14.5653H14.5652H14.5651H14.5649H14.5648H14.5646H14.5645H14.5644H14.5642H14.5641H14.564H14.5638H14.5637H14.5635H14.5634H14.5633H14.5631H14.563H14.5628H14.5627H14.5626H14.5624H14.5623H14.5622H14.562H14.5619H14.5617H14.5616H14.5615H14.5613H14.5612H14.5611H14.5609H14.5608H14.5606H14.5605H14.5604H14.5602H14.5601H14.56H14.5598H14.5597H14.5595H14.5594H14.5593H14.5591H14.559H14.5589H14.5587H14.5586H14.5584H14.5583H14.5582H14.558H14.5579H14.5578H14.5576H14.5575H14.5573H14.5572H14.5571H14.5569H14.5568H14.5567H14.5565H14.5564H14.5563H14.5561H14.556H14.5558H14.5557H14.5556H14.5554H14.5553H14.5552H14.555H14.5549H14.5548H14.5546H14.5545H14.5543H14.5542H14.5541H14.5539H14.5538H14.5537H14.5535H14.5534H14.5533H14.5531H14.553H14.5528H14.5527H14.5526H14.5524H14.5523H14.5522H14.552H14.5519H14.5518H14.5516H14.5515H14.5514H14.5512H14.5511H14.5509H14.5508H14.5507H14.5505H14.5504H14.5503H14.5501H14.55H14.5499H14.5497H14.5496H14.5495H14.5493H14.5492H14.549H14.5489H14.5488H14.5486H14.5485H14.5484H14.5482H14.5481H14.548H14.5478H14.5477H14.5476H14.5474H14.5473H14.5472H14.547H14.5469H14.5467H14.5466H14.5465H14.5463H14.5462H14.5461H14.5459H14.5458H14.5457H14.5455H14.5454H14.5453H14.5451H14.545H14.5449H14.5447H14.5446H14.5445H14.5443H14.5442H14.5441H14.5439H14.5438H14.5436H14.5435H14.5434H14.5432H14.5431H14.543H14.5428H14.5427H14.5426H14.5424H14.5423H14.5422H14.542H14.5419H14.5418H14.5416H14.5415H14.5414H14.5412H14.5411H14.541H14.5408H14.5407H14.5406H14.5404H14.5403H14.5402H14.54H14.5399H14.5397H14.5396H14.5395H14.5393H14.5392H14.5391H14.5389H14.5388H14.5387H14.5385H14.5384H14.5383H14.5381H14.538H14.5379H14.5377H14.5376H14.5375H14.5373H14.5372H14.5371H14.5369H14.5368H14.5367H14.5365H14.5364H14.5363H14.5361H14.536H14.5359H14.5357H14.5356H14.5355H14.5353H14.5352H14.5351H14.5349H14.5348H14.5347H14.5345H14.5344H14.5343H14.5341H14.534H14.5339H14.5337H14.5336H14.5335H14.5333H14.5332H14.533H14.5329H14.5328H14.5326H14.5325H14.5324H14.5322H14.5321H14.532H14.5318H14.5317H14.5316H14.5314H14.5313H14.5312H14.531H14.5309H14.5308H14.5306H14.5305H14.5304H14.5302H14.5301H14.53H14.5298H14.5297H14.5296H14.5294H14.5293H14.5292H14.529H14.5289H14.5288H14.5286H14.5285H14.5284H14.5282H14.5281H14.528H14.5278H14.5277H14.5276H14.5274H14.5273H14.5272H14.527H14.5269H14.5268H14.5266H14.5265H14.5264H14.5262H14.5261H14.526H14.5258H14.5257H14.5256H14.5254H14.5253H14.5252H14.525H14.5249H14.5248H14.5246H14.5245H14.5244H14.5242H14.5241H14.524H14.5238H14.5237H14.5236H14.5234H14.5233H14.5232H14.523H14.5229H14.5228H14.5226H14.5225H14.5224H14.5222H14.5221H14.522H14.5218H14.5217H14.5216H14.5214H14.5213H14.5212H14.521H14.5209H14.5208H14.5206H14.5205H14.5204H14.5202H14.5201H14.52H14.5198H14.5197H14.5196H14.5194H14.5193H14.5192H14.519H14.5189H14.5188H14.5186H14.5185H14.5184H14.5182H14.5181H14.518H14.5178H14.5177H14.5176H14.5174H14.5173H14.5172H14.517H14.5169H14.5168H14.5166H14.5165H14.5164H14.5162H14.5161H14.516H14.5158H14.5157H14.5156H14.5154H14.5153H14.5152H14.515H14.5149H14.5148H14.5146H14.5145H14.5144H14.5142H14.5141H14.514H14.5138H14.5137H14.5136H14.5134H14.5133H14.5132H14.513H14.5129H14.5128H14.5126H14.5125H14.5124H14.5122H14.5121H14.5119H14.5118H14.5117H14.5115H14.5114H14.5113H14.5111H14.511H14.5109H14.5107H14.5106H14.5105H14.5103H14.5102H14.5101H14.5099H14.5098H14.5097H14.5095H14.5094H14.5093H14.5091H14.509H14.5089H14.5087H14.5086H14.5085H14.5083H14.5082H14.5081H14.5079H14.5078H14.5077H14.5075H14.5074H14.5073H14.5071H14.507H14.5069H14.5067H14.5066H14.5065H14.5063H14.5062H14.5061H14.5059H14.5058H14.5056H14.5055H14.5054H14.5052H14.5051H14.505H14.5048H14.5047H14.5046H14.5044H14.5043H14.5042H14.504H14.5039H14.5038H14.5036H14.5035H14.5034H14.5032H14.5031H14.503H14.5028H14.5027H14.5026H14.5024H14.5023H14.5021H14.502H14.5019H14.5017H14.5016H14.5015H14.5013H14.5012H14.5011H14.5009H14.5008H14.5007H14.5005H14.5004C12.1521 1.9 9.93138 2.80964 8.24147 4.46402L8.24145 4.46404C6.51225 6.15798 5.55901 8.40705 5.55901 10.7973V15.5989H3.88835C2.24164 15.5989 0.9 16.9212 0.9 18.5496V33.1494C0.9 34.7777 2.24164 36.1 3.88835 36.1H25.1109C26.7576 36.1 28.0992 34.7777 28.0992 33.1494V18.5496C28.0992 16.9214 26.7572 15.5994 25.1109 15.5989C25.1106 15.5989 25.1103 15.5989 25.1101 15.5989H10.1034V10.7856C10.1034 9.60481 10.5752 8.49203 11.4342 7.65043C12.2666 6.83503 13.3537 6.38773 14.5004 6.38773H14.5318C15.6942 6.39625 16.7876 6.84706 17.6092 7.65875ZM9.30047 5.5203L9.3005 5.52027C10.7071 4.14209 12.552 3.38577 14.5012 3.38577H14.5013H14.5014H14.5015H14.5017H14.5018H14.5019H14.502H14.5021H14.5022H14.5024H14.5025H14.5026H14.5027H14.5028H14.5029H14.5031H14.5032H14.5033H14.5034H14.5035H14.5036H14.5037H14.5039H14.504H14.5041H14.5042H14.5043H14.5044H14.5046H14.5047H14.5048H14.5049H14.505H14.5051H14.5053H14.5054H14.5055H14.5056H14.5057H14.5058H14.5059H14.5061H14.5062H14.5063H14.5064H14.5065H14.5066H14.5068H14.5069H14.507H14.5071H14.5072H14.5073H14.5075H14.5076H14.5077H14.5078H14.5079H14.508H14.5081H14.5083H14.5084H14.5085H14.5086H14.5087H14.5088H14.5089H14.5091H14.5092H14.5093H14.5094H14.5095H14.5096H14.5098H14.5099H14.51H14.5101H14.5102H14.5103H14.5104H14.5106H14.5107H14.5108H14.5109H14.511H14.5111H14.5113H14.5114H14.5115H14.5116H14.5117H14.5118H14.5119H14.5121H14.5122H14.5123H14.5124H14.5125H14.5126H14.5127H14.5129H14.513H14.5131H14.5132H14.5133H14.5134H14.5135H14.5137H14.5138H14.5139H14.514H14.5141H14.5142H14.5143H14.5145H14.5146H14.5147H14.5148H14.5149H14.515H14.5151H14.5153H14.5154H14.5155H14.5156H14.5157H14.5158H14.516H14.5161H14.5162H14.5163H14.5164H14.5165H14.5166H14.5168H14.5169H14.517H14.5171H14.5172H14.5173H14.5174H14.5175H14.5177H14.5178H14.5179H14.518H14.5181H14.5182H14.5183H14.5185H14.5186H14.5187H14.5188H14.5189H14.519H14.5191H14.5193H14.5194H14.5195H14.5196H14.5197H14.5198H14.5199H14.5201H14.5202H14.5203H14.5204H14.5205H14.5206H14.5207H14.5209H14.521H14.5211H14.5212H14.5213H14.5214H14.5215H14.5217H14.5218H14.5219H14.522H14.5221H14.5222H14.5223H14.5224H14.5226H14.5227H14.5228H14.5229H14.523H14.5231H14.5232H14.5234H14.5235H14.5236H14.5237H14.5238H14.5239H14.524H14.5241H14.5243H14.5244H14.5245H14.5246H14.5247H14.5248H14.5249H14.5251H14.5252H14.5253H14.5254H14.5255H14.5256H14.5257H14.5258H14.526H14.5261H14.5262H14.5263H14.5264H14.5265H14.5266H14.5268H14.5269H14.527H14.5271H14.5272H14.5273H14.5274H14.5275H14.5277H14.5278H14.5279H14.528H14.5281H14.5282H14.5283H14.5285H14.5286H14.5287H14.5288H14.5289H14.529H14.5291H14.5292H14.5294H14.5295H14.5296H14.5297H14.5298H14.5299H14.53H14.5301H14.5303H14.5304H14.5305H14.5306H14.5307H14.5308H14.5309H14.531H14.5312H14.5313H14.5314H14.5315H14.5316H14.5317H14.5318H14.532H14.5321H14.5322H14.5323H14.5324H14.5325H14.5326H14.5327H14.5329H14.533H14.5331H14.5332H14.5333H14.5334H14.5335H14.5336H14.5338H14.5339H14.534H14.5341H14.5342H14.5343H14.5344H14.5345H14.5347H14.5348H14.5349H14.535H14.5351H14.5352H14.5353H14.5354H14.5356H14.5357H14.5358H14.5359H14.536H14.5361H14.5362H14.5363H14.5365H14.5366H14.5367H14.5368H14.5369H14.537H14.5371H14.5372H14.5374H14.5375H14.5376H14.5377H14.5378H14.5379H14.538H14.5381H14.5383H14.5384H14.5385H14.5386H14.5387H14.5388H14.5389H14.539H14.5392H14.5393H14.5394H14.5395H14.5396H14.5397H14.5398H14.5399H14.54H14.5402H14.5403H14.5404H14.5405H14.5406H14.5407H14.5408H14.5409H14.5411H14.5412H14.5413H14.5414H14.5415H14.5416H14.5417H14.5418H14.542H14.5421H14.5422H14.5423H14.5424H14.5425H14.5426H14.5427H14.5429H14.543H14.5431H14.5432H14.5433H14.5434H14.5435H14.5436H14.5437H14.5439H14.544H14.5441H14.5442H14.5443H14.5444H14.5445H14.5446H14.5448H14.5449H14.545H14.5451H14.5452H14.5453H14.5454H14.5455H14.5457H14.5458H14.5459H14.546H14.5461H14.5462H14.5463H14.5464H14.5465H14.5467H14.5468H14.5469H14.547H14.5471H14.5472H14.5473H14.5474H14.5476H14.5477H14.5478H14.5479H14.548H14.5481H14.5482H14.5483H14.5485H14.5486H14.5487H14.5488H14.5489H14.549H14.5491H14.5492H14.5493H14.5495H14.5496H14.5497H14.5498H14.5499H14.55H14.5501H14.5502H14.5504H14.5505H14.5506H14.5507H14.5508H14.5509H14.551H14.5511H14.5512H14.5514H14.5515H14.5516H14.5517H14.5518H14.5519H14.552H14.5521H14.5523H14.5524H14.5525H14.5526H14.5527H14.5528H14.5529H14.553H14.5531H14.5533H14.5534H14.5535H14.5536H14.5537H14.5538H14.5539H14.554H14.5542H14.5543H14.5544H14.5545H14.5546H14.5547H14.5548H14.5549H14.555H14.5552H14.5553H14.5554H14.5555H14.5556H14.5557H14.5558H14.5559H14.5561H14.5562H14.5563H14.5564H14.5565H14.5566H14.5567H14.5568H14.5569H14.5571H14.5572H14.5573H14.5574H14.5575H14.5576H14.5577H14.5578H14.558H14.5581H14.5582H14.5583H14.5584H14.5585H14.5586H14.5587H14.5588C16.5235 3.40057 18.3699 4.16415 19.7588 5.53491L19.7588 5.53493C21.0575 6.81592 21.8165 8.48777 21.9241 10.2802H20.3833C20.278 8.89085 19.6795 7.59903 18.6712 6.60461C17.5682 5.51523 16.1014 4.90999 14.5424 4.89882H14.5417H14.5004C12.9535 4.89882 11.4907 5.49964 10.3752 6.59181L10.3751 6.59185C9.23061 7.71345 8.59987 9.20202 8.59987 10.7824V15.5966H7.06258V10.7973C7.06258 8.80741 7.85693 6.9334 9.30047 5.5203ZM26.5964 33.1494C26.5964 33.9553 25.9314 34.6142 25.1109 34.6142H3.88835C3.06849 34.6142 2.40277 33.956 2.40277 33.1494V18.5496C2.40277 17.7436 3.06776 17.0847 3.88835 17.0847H25.1109C25.9307 17.0847 26.5964 17.7429 26.5964 18.5496V33.1494Z" fill="#6E6D70" stroke="#6E6D70" stroke-width="0.2"/>
<path d="M15.1119 30.4551H13.8891L14.3028 27.5217L14.3028 27.5215C14.3497 27.1836 14.1582 26.8578 13.8389 26.7304C13.1653 26.4615 12.7317 25.8268 12.7317 25.1118C12.7317 24.1506 13.5237 23.367 14.5009 23.367C15.4779 23.367 16.27 24.1514 16.27 25.1118C16.27 25.8268 15.8364 26.4622 15.1631 26.7303C14.8426 26.8569 14.6511 27.1838 14.6989 27.5217L14.6989 27.5217L15.1119 30.4551ZM15.1119 30.4551L14.6989 27.5217L15.1119 30.4551ZM16.5402 31.6869C16.6835 31.5255 16.7488 31.3096 16.7185 31.0962C16.7185 31.0962 16.7185 31.0962 16.7185 31.0961L16.2597 27.8363C17.1942 27.2511 17.772 26.2343 17.772 25.111C17.772 23.3282 16.3033 21.8805 14.5001 21.8805C12.6969 21.8805 11.2281 23.3282 11.2281 25.111C11.2281 26.2343 11.8067 27.2511 12.7404 27.8363L12.2817 31.0961L12.3807 31.1102L12.2816 31.0963L12.2817 31.0962C12.2513 31.309 12.3168 31.5248 12.4598 31.6868C12.6027 31.8486 12.8079 31.9417 13.0257 31.9417H15.9744C15.9747 31.9417 15.975 31.9417 15.9752 31.9417C16.1918 31.9415 16.3975 31.8485 16.5402 31.6869ZM16.5402 31.6869C16.5402 31.6869 16.5403 31.6868 16.5403 31.6868L16.4653 31.6206L16.5401 31.687C16.5401 31.687 16.5402 31.6869 16.5402 31.6869Z" fill="#6E6D70" stroke="#6E6D70" stroke-width="0.2"/>
</svg>
