<svg width="435" height="141" viewBox="0 0 435 141" fill="none" xmlns="http://www.w3.org/2000/svg">
<path d="M48.888 29.5594C37.218 29.5594 28.702 35.8823 25.5479 40.1502H25.2325V32.0886H0V141H25.2325V104.96H25.5479C28.702 109.228 37.218 115.55 48.888 115.55C70.3357 115.55 84.0559 99.111 84.0559 72.5549C84.0559 45.9989 70.3357 29.5594 48.888 29.5594ZM42.2645 96.5818C32.0138 96.5818 25.7056 88.3621 25.7056 72.5549C25.7056 56.7478 32.0138 48.528 42.2645 48.528C52.5152 48.528 58.8233 56.7478 58.8233 72.5549C58.8233 88.3621 52.5152 96.5818 42.2645 96.5818Z" fill="#1C1B1F"/>
<path d="M129.127 96.5818C120.138 96.5818 111.78 90.5751 111.78 79.194H169.814C169.814 49.7926 155.779 29.5594 128.181 29.5594C102.475 29.5594 86.5471 47.8957 86.5471 72.5549C86.5471 97.8464 102.791 115.55 129.6 115.55C151.521 115.55 164.137 104.802 168.553 88.5202H143.478C141.901 92.472 137.801 96.5818 129.127 96.5818ZM128.181 46.9473C137.801 46.9473 144.582 52.6379 144.582 63.861H111.78C111.78 52.6379 118.561 46.9473 128.181 46.9473Z" fill="#1C1B1F"/>
<path d="M230.462 0V40.1502H230.147C226.993 35.8823 218.477 29.5594 206.807 29.5594C185.359 29.5594 171.639 45.9989 171.639 72.5549C171.639 99.111 185.359 115.55 206.807 115.55C218.477 115.55 226.993 109.228 230.147 104.96H230.462V113.021H255.695V0H230.462ZM213.431 96.5818C203.18 96.5818 196.872 88.3621 196.872 72.5549C196.872 56.7478 203.18 48.528 213.431 48.528C223.681 48.528 229.989 56.7478 229.989 72.5549C229.989 88.3621 223.681 96.5818 213.431 96.5818Z" fill="#1C1B1F"/>
<path d="M264.212 0V113.021H289.445V0H264.212Z" fill="#1C1B1F"/>
<path d="M346.413 54.5348C346.413 61.3318 336.162 62.9126 325.753 64.9675C306.829 68.7612 295.001 76.1906 295.001 92.3139C295.001 105.908 304.464 115.55 321.495 115.55C332.219 115.55 341.682 110.492 346.886 104.485H347.201C347.201 110.176 350.355 115.55 361.71 115.55C366.756 115.55 371.33 114.918 376.376 113.021V107.015C373.222 107.015 371.645 105.276 371.645 101.008V63.861C371.645 38.4114 359.029 29.5594 336.32 29.5594C309.983 29.5594 298.944 42.6794 298.155 58.1704H321.811C322.599 50.4249 327.015 46.9473 336.162 46.9473C343.101 46.9473 346.413 49.7926 346.413 54.5348ZM330.327 98.1626C324.176 98.1626 320.234 95.3173 320.234 88.6783C320.234 83.62 323.546 79.5101 333.481 77.2971C339.316 76.0325 343.259 74.926 346.413 73.6614V83.4619C346.413 91.2074 341.208 98.1626 330.327 98.1626Z" fill="#1C1B1F"/>
<path d="M428.061 30.6659C419.23 30.6659 412.291 36.3565 408.348 45.3666H408.033V32.0886H382.8V113.021H408.033V75.4002C408.033 58.1704 421.753 51.0572 434.685 53.4283H435V31.2982C432.161 30.6659 430.269 30.6659 428.061 30.6659Z" fill="#1C1B1F"/>
</svg>
