<svg width="41" height="36" viewBox="0 0 41 36" fill="none" xmlns="http://www.w3.org/2000/svg">
<g clip-path="url(#clip0_53710_77307)">
<mask id="path-1-outside-1_53710_77307" maskUnits="userSpaceOnUse" x="-0.996094" y="-1" width="43" height="38" fill="black">
<rect fill="white" x="-0.996094" y="-1" width="43" height="38"/>
<path d="M33.5754 1.60307L31.6705 0.85801C26.1244 -1.31359 19.8348 0.760762 17.0168 5.6822C16.9965 5.70987 16.9872 5.74354 16.9707 5.77421C16.8512 5.92232 16.7817 6.07193 16.731 6.18863L15.9257 8.11187L14.7792 7.66304L14.7761 7.66154C11.923 6.5462 8.72935 6.53797 6.01372 7.6406C3.54568 8.64224 1.65481 10.4637 0.690245 12.77C-1.4115 17.7954 1.47674 23.6833 7.12903 25.9013C7.13215 25.9013 7.13294 25.9043 7.13528 25.905L8.29432 26.3583L7.94364 27.1962C7.43129 28.4237 8.31151 29.8862 9.94932 30.528C10.4148 30.7098 10.9123 30.8063 11.3887 30.8063C11.8652 30.8063 12.2588 30.7195 12.6204 30.5646C12.9578 31.3097 13.6693 31.983 14.6566 32.3697C15.1588 32.5664 15.6961 32.6704 16.2085 32.6704C16.6326 32.6704 17.027 32.5986 17.3769 32.4677C17.6729 33.1709 18.3422 33.8127 19.2763 34.1785C19.7301 34.3558 20.2136 34.4493 20.6752 34.4493C21.0579 34.4493 21.4124 34.3842 21.728 34.2683C22.0045 34.9093 22.5699 35.4681 23.3549 35.7748C23.7368 35.9244 24.1328 36 24.5319 36C25.58 36 26.4852 35.4562 26.8375 34.6146L27.1358 33.9002L28.3839 34.3894C28.4854 34.4283 28.6213 34.4799 28.7916 34.5016C29.0212 34.5577 29.2524 34.5854 29.482 34.5854C30.6528 34.5854 31.7603 33.8748 32.2351 32.7377C32.5491 31.9912 32.5194 31.1923 32.2219 30.5011C33.1685 30.3051 34.0081 29.6498 34.408 28.6923C34.7407 27.8993 34.6883 27.0346 34.3283 26.3187C35.3436 26.1384 36.2129 25.5467 36.5886 24.6498C36.8893 23.9317 36.8159 23.1462 36.4628 22.4468C36.7854 22.4139 37.1025 22.3525 37.3977 22.2306C38.2381 21.9217 38.8778 21.3314 39.1964 20.5699C39.4753 19.9019 39.4667 19.1651 39.205 18.4619L40.1938 16.0973C42.5541 10.457 39.5854 3.9542 33.5769 1.60232L33.5754 1.60307ZM7.657 24.6947C7.657 24.6947 7.657 24.6947 7.65544 24.6947C2.68811 22.7505 0.133373 17.6204 1.95863 13.257C2.7873 11.2769 4.41652 9.71046 6.54717 8.84646C8.93242 7.87922 11.7441 7.8897 14.2629 8.87563L15.4188 9.32745L12.7415 15.7278C12.1682 17.1012 12.9977 18.7245 14.5902 19.3618C14.113 19.18 13.6108 19.0828 13.1343 19.0828C12.0268 19.0828 11.124 19.5967 10.7764 20.4248L8.80199 25.145L7.657 24.6962V24.6947ZM10.4664 29.3169C9.48461 28.9324 9.01833 28.1477 9.21281 27.6839L11.0631 23.2599C11.0654 23.2554 11.0685 23.2524 11.0709 23.248L12.0495 20.9088C12.0495 20.9088 12.0495 20.9058 12.0495 20.9043C12.1893 20.5826 12.5931 20.3904 13.1351 20.3904C13.4475 20.3904 13.7842 20.4577 14.1098 20.5849C14.9963 20.932 15.5571 21.674 15.3361 22.2052L12.5509 28.8651C12.5509 28.8651 12.5494 28.8703 12.5486 28.8733L12.5041 28.9803C12.2979 29.4688 11.3153 29.6505 10.4671 29.3169H10.4664ZM15.172 31.1586C14.1919 30.7748 13.5725 29.9505 13.8177 29.3565L16.6037 22.6944C16.6037 22.6944 16.6037 22.6921 16.6037 22.6914L17.4698 20.6208C17.6174 20.2685 18.1087 20.0418 18.7195 20.0418C19.0514 20.0418 19.4005 20.1099 19.7293 20.2378C20.2761 20.4517 20.7181 20.8273 20.9532 21.2484C20.9532 21.398 21.0133 21.5394 21.1102 21.6553C21.1367 21.793 21.1383 21.9224 21.0868 22.0451L19.1873 26.588C19.1873 26.588 19.1834 26.5947 19.1818 26.5985L17.4339 30.7778C17.1972 31.3374 16.1226 31.5296 15.1705 31.1571L15.172 31.1586ZM19.7934 32.9681C18.8811 32.6106 18.4367 31.9052 18.6093 31.4952L18.7038 31.2686C18.7038 31.2686 18.7054 31.2656 18.7062 31.2648L20.4557 27.0832C20.5479 26.8693 20.8501 26.7077 21.2266 26.6665C21.2484 26.6695 21.2711 26.6688 21.2937 26.6695C21.2969 26.6695 21.3 26.671 21.3023 26.671C21.3047 26.671 21.307 26.671 21.3101 26.671C21.3195 26.671 21.3281 26.6725 21.3383 26.671L21.4101 26.6695C21.6991 26.6695 22.0287 26.7361 22.3387 26.8588C22.6761 26.9912 22.987 27.1864 23.194 27.3996C23.49 27.6981 23.6079 28.0392 23.5033 28.2883L21.6585 32.6988C21.4781 33.1275 20.5744 33.2741 19.7934 32.9681ZM24.9013 28.132L25.3231 28.2966C25.1762 28.2936 25.0302 28.3025 24.8865 28.319C24.895 28.2577 24.9005 28.1948 24.9013 28.132ZM23.8703 34.5652C23.1737 34.2929 22.7675 33.6698 22.9253 33.1896C22.9253 33.1896 22.9253 33.1881 22.9253 33.1873L23.7594 31.1945L24.2046 30.13C24.2585 29.9999 24.3429 29.8981 24.4647 29.8129C24.6662 29.6752 24.9388 29.5997 25.2332 29.5997C25.455 29.5997 25.6745 29.6416 25.8862 29.7246C26.5953 30.0021 27.0171 30.6604 26.8078 31.1616L25.5667 34.1291C25.3574 34.6311 24.5733 34.8383 23.8703 34.5645V34.5652ZM30.9652 32.253C30.6489 33.0093 29.8452 33.4289 29.1001 33.2285C29.054 33.2157 29.0267 33.2113 28.9783 33.2083C28.9478 33.2008 28.9205 33.1881 28.8923 33.1776L27.6443 32.6876L28.0777 31.6493C28.4433 30.7763 28.1215 29.7755 27.3514 29.091L30.2677 30.2325C30.2677 30.2325 30.2732 30.2348 30.2755 30.2355C30.2982 30.2527 30.3216 30.2692 30.3466 30.2849C31.0144 30.6888 31.2745 31.5162 30.966 32.253H30.9652ZM33.1388 28.206C32.8154 28.981 32.0477 29.4044 31.2979 29.2211L27.827 27.8627L24.0625 26.389C23.736 26.0898 23.3166 25.8287 22.855 25.6477C22.3786 25.4599 21.8779 25.3612 21.4085 25.3612H21.3945C21.3632 25.356 21.3304 25.3567 21.2984 25.356C21.2867 25.356 21.2758 25.3537 21.2641 25.3537C21.2555 25.3537 21.2492 25.3522 21.2406 25.3522C21.218 25.3537 21.1969 25.3582 21.1735 25.3597L22.3559 22.5328C22.3919 22.4475 22.4145 22.3585 22.4372 22.2717L32.3273 26.1429C32.3421 26.1489 32.3578 26.1549 32.3726 26.1601C32.4163 26.2065 32.4687 26.2469 32.5257 26.2783C33.1802 26.6501 33.4434 27.4782 33.138 28.206H33.1388ZM37.9273 20.0852C37.7015 20.6223 37.2485 20.8849 36.8838 21.0188C36.3722 21.229 35.7997 21.2237 35.2358 21.0023L34.49 20.7106C34.49 20.7106 34.49 20.7106 34.4884 20.7106L31.8626 19.682L24.0914 16.6404H24.089L23.6431 16.4654C23.2924 16.3285 22.8948 16.4893 22.7519 16.8244C22.609 17.1596 22.7769 17.5411 23.1268 17.6772L29.7991 20.2887L33.9745 21.9239C35.0375 22.3413 35.6545 23.3661 35.3202 24.1628C34.9851 24.9632 33.862 25.3006 32.8311 24.9258L23.1487 21.1362L22.2552 20.7869C21.9022 20.0351 21.175 19.391 20.2472 19.0274C19.7559 18.8359 19.2287 18.7335 18.721 18.7335C17.5307 18.7335 16.5654 19.2706 16.2022 20.1346L16.0999 20.3807C15.7406 19.9715 15.2447 19.6221 14.6448 19.3843C14.8151 19.4471 14.9948 19.4815 15.183 19.4815C15.4384 19.4815 15.7102 19.4239 15.9945 19.3072C17.487 18.7005 19.1889 16.517 19.5794 15.5774L20.879 12.4723C21.6147 12.6256 22.9558 12.8538 24.4772 12.8747L25.4886 13.2704H25.4902L36.6331 17.6323C37.1783 17.8455 37.6047 18.224 37.8421 18.6998C37.8468 18.711 37.8554 18.7192 37.8593 18.7297C38.0147 19.0536 38.1506 19.5488 37.9273 20.0852ZM38.9239 15.6126L38.2943 17.1177C37.9679 16.8267 37.582 16.5888 37.1509 16.4205L27.4084 12.6069C27.5599 12.574 27.713 12.5433 27.859 12.5037C31.8751 11.4227 35.3788 8.40286 35.5264 8.27569C35.8052 8.03257 35.8255 7.61815 35.5725 7.3511C35.3186 7.0833 34.8875 7.0646 34.6071 7.30696C34.5735 7.33614 31.1995 10.2461 27.4912 11.244C26.6516 11.4691 25.6972 11.5776 24.6248 11.5679C22.495 11.5566 20.6689 11.0779 20.6502 11.0734C20.6174 11.0652 20.5853 11.0704 20.5525 11.0667C20.5065 11.0607 20.4619 11.0532 20.4174 11.0569C20.3745 11.0599 20.3346 11.0712 20.2932 11.0824C20.2503 11.0936 20.2073 11.1033 20.1659 11.1228C20.1284 11.14 20.0972 11.1647 20.0644 11.1894C20.0277 11.2155 19.9925 11.2402 19.9621 11.2731C19.9316 11.3046 19.9121 11.342 19.8887 11.3801C19.8723 11.4085 19.8465 11.4295 19.834 11.4609L18.3133 15.0919C18.0072 15.8265 16.4943 17.6832 15.4626 18.1028C15.2728 18.1792 15.1658 18.1769 15.1346 18.1649C14.2184 17.8066 13.717 16.9374 14.0099 16.2222C14.0114 16.22 14.013 16.2193 14.0138 16.217L17.7377 7.31145C17.8228 7.10798 17.9259 6.90377 18.0275 6.70104L18.1407 6.47139C18.1751 6.42202 18.2032 6.36816 18.2212 6.3128C18.2227 6.30981 18.2212 6.30607 18.2235 6.30383C20.708 1.97186 26.2533 0.151849 31.1542 2.0706L33.0591 2.81566C38.374 4.89525 41.0061 10.6358 38.9239 15.6111V15.6126Z"/>
</mask>
<path d="M33.5754 1.60307L31.6705 0.85801C26.1244 -1.31359 19.8348 0.760762 17.0168 5.6822C16.9965 5.70987 16.9872 5.74354 16.9707 5.77421C16.8512 5.92232 16.7817 6.07193 16.731 6.18863L15.9257 8.11187L14.7792 7.66304L14.7761 7.66154C11.923 6.5462 8.72935 6.53797 6.01372 7.6406C3.54568 8.64224 1.65481 10.4637 0.690245 12.77C-1.4115 17.7954 1.47674 23.6833 7.12903 25.9013C7.13215 25.9013 7.13294 25.9043 7.13528 25.905L8.29432 26.3583L7.94364 27.1962C7.43129 28.4237 8.31151 29.8862 9.94932 30.528C10.4148 30.7098 10.9123 30.8063 11.3887 30.8063C11.8652 30.8063 12.2588 30.7195 12.6204 30.5646C12.9578 31.3097 13.6693 31.983 14.6566 32.3697C15.1588 32.5664 15.6961 32.6704 16.2085 32.6704C16.6326 32.6704 17.027 32.5986 17.3769 32.4677C17.6729 33.1709 18.3422 33.8127 19.2763 34.1785C19.7301 34.3558 20.2136 34.4493 20.6752 34.4493C21.0579 34.4493 21.4124 34.3842 21.728 34.2683C22.0045 34.9093 22.5699 35.4681 23.3549 35.7748C23.7368 35.9244 24.1328 36 24.5319 36C25.58 36 26.4852 35.4562 26.8375 34.6146L27.1358 33.9002L28.3839 34.3894C28.4854 34.4283 28.6213 34.4799 28.7916 34.5016C29.0212 34.5577 29.2524 34.5854 29.482 34.5854C30.6528 34.5854 31.7603 33.8748 32.2351 32.7377C32.5491 31.9912 32.5194 31.1923 32.2219 30.5011C33.1685 30.3051 34.0081 29.6498 34.408 28.6923C34.7407 27.8993 34.6883 27.0346 34.3283 26.3187C35.3436 26.1384 36.2129 25.5467 36.5886 24.6498C36.8893 23.9317 36.8159 23.1462 36.4628 22.4468C36.7854 22.4139 37.1025 22.3525 37.3977 22.2306C38.2381 21.9217 38.8778 21.3314 39.1964 20.5699C39.4753 19.9019 39.4667 19.1651 39.205 18.4619L40.1938 16.0973C42.5541 10.457 39.5854 3.9542 33.5769 1.60232L33.5754 1.60307ZM7.657 24.6947C7.657 24.6947 7.657 24.6947 7.65544 24.6947C2.68811 22.7505 0.133373 17.6204 1.95863 13.257C2.7873 11.2769 4.41652 9.71046 6.54717 8.84646C8.93242 7.87922 11.7441 7.8897 14.2629 8.87563L15.4188 9.32745L12.7415 15.7278C12.1682 17.1012 12.9977 18.7245 14.5902 19.3618C14.113 19.18 13.6108 19.0828 13.1343 19.0828C12.0268 19.0828 11.124 19.5967 10.7764 20.4248L8.80199 25.145L7.657 24.6962V24.6947ZM10.4664 29.3169C9.48461 28.9324 9.01833 28.1477 9.21281 27.6839L11.0631 23.2599C11.0654 23.2554 11.0685 23.2524 11.0709 23.248L12.0495 20.9088C12.0495 20.9088 12.0495 20.9058 12.0495 20.9043C12.1893 20.5826 12.5931 20.3904 13.1351 20.3904C13.4475 20.3904 13.7842 20.4577 14.1098 20.5849C14.9963 20.932 15.5571 21.674 15.3361 22.2052L12.5509 28.8651C12.5509 28.8651 12.5494 28.8703 12.5486 28.8733L12.5041 28.9803C12.2979 29.4688 11.3153 29.6505 10.4671 29.3169H10.4664ZM15.172 31.1586C14.1919 30.7748 13.5725 29.9505 13.8177 29.3565L16.6037 22.6944C16.6037 22.6944 16.6037 22.6921 16.6037 22.6914L17.4698 20.6208C17.6174 20.2685 18.1087 20.0418 18.7195 20.0418C19.0514 20.0418 19.4005 20.1099 19.7293 20.2378C20.2761 20.4517 20.7181 20.8273 20.9532 21.2484C20.9532 21.398 21.0133 21.5394 21.1102 21.6553C21.1367 21.793 21.1383 21.9224 21.0868 22.0451L19.1873 26.588C19.1873 26.588 19.1834 26.5947 19.1818 26.5985L17.4339 30.7778C17.1972 31.3374 16.1226 31.5296 15.1705 31.1571L15.172 31.1586ZM19.7934 32.9681C18.8811 32.6106 18.4367 31.9052 18.6093 31.4952L18.7038 31.2686C18.7038 31.2686 18.7054 31.2656 18.7062 31.2648L20.4557 27.0832C20.5479 26.8693 20.8501 26.7077 21.2266 26.6665C21.2484 26.6695 21.2711 26.6688 21.2937 26.6695C21.2969 26.6695 21.3 26.671 21.3023 26.671C21.3047 26.671 21.307 26.671 21.3101 26.671C21.3195 26.671 21.3281 26.6725 21.3383 26.671L21.4101 26.6695C21.6991 26.6695 22.0287 26.7361 22.3387 26.8588C22.6761 26.9912 22.987 27.1864 23.194 27.3996C23.49 27.6981 23.6079 28.0392 23.5033 28.2883L21.6585 32.6988C21.4781 33.1275 20.5744 33.2741 19.7934 32.9681ZM24.9013 28.132L25.3231 28.2966C25.1762 28.2936 25.0302 28.3025 24.8865 28.319C24.895 28.2577 24.9005 28.1948 24.9013 28.132ZM23.8703 34.5652C23.1737 34.2929 22.7675 33.6698 22.9253 33.1896C22.9253 33.1896 22.9253 33.1881 22.9253 33.1873L23.7594 31.1945L24.2046 30.13C24.2585 29.9999 24.3429 29.8981 24.4647 29.8129C24.6662 29.6752 24.9388 29.5997 25.2332 29.5997C25.455 29.5997 25.6745 29.6416 25.8862 29.7246C26.5953 30.0021 27.0171 30.6604 26.8078 31.1616L25.5667 34.1291C25.3574 34.6311 24.5733 34.8383 23.8703 34.5645V34.5652ZM30.9652 32.253C30.6489 33.0093 29.8452 33.4289 29.1001 33.2285C29.054 33.2157 29.0267 33.2113 28.9783 33.2083C28.9478 33.2008 28.9205 33.1881 28.8923 33.1776L27.6443 32.6876L28.0777 31.6493C28.4433 30.7763 28.1215 29.7755 27.3514 29.091L30.2677 30.2325C30.2677 30.2325 30.2732 30.2348 30.2755 30.2355C30.2982 30.2527 30.3216 30.2692 30.3466 30.2849C31.0144 30.6888 31.2745 31.5162 30.966 32.253H30.9652ZM33.1388 28.206C32.8154 28.981 32.0477 29.4044 31.2979 29.2211L27.827 27.8627L24.0625 26.389C23.736 26.0898 23.3166 25.8287 22.855 25.6477C22.3786 25.4599 21.8779 25.3612 21.4085 25.3612H21.3945C21.3632 25.356 21.3304 25.3567 21.2984 25.356C21.2867 25.356 21.2758 25.3537 21.2641 25.3537C21.2555 25.3537 21.2492 25.3522 21.2406 25.3522C21.218 25.3537 21.1969 25.3582 21.1735 25.3597L22.3559 22.5328C22.3919 22.4475 22.4145 22.3585 22.4372 22.2717L32.3273 26.1429C32.3421 26.1489 32.3578 26.1549 32.3726 26.1601C32.4163 26.2065 32.4687 26.2469 32.5257 26.2783C33.1802 26.6501 33.4434 27.4782 33.138 28.206H33.1388ZM37.9273 20.0852C37.7015 20.6223 37.2485 20.8849 36.8838 21.0188C36.3722 21.229 35.7997 21.2237 35.2358 21.0023L34.49 20.7106C34.49 20.7106 34.49 20.7106 34.4884 20.7106L31.8626 19.682L24.0914 16.6404H24.089L23.6431 16.4654C23.2924 16.3285 22.8948 16.4893 22.7519 16.8244C22.609 17.1596 22.7769 17.5411 23.1268 17.6772L29.7991 20.2887L33.9745 21.9239C35.0375 22.3413 35.6545 23.3661 35.3202 24.1628C34.9851 24.9632 33.862 25.3006 32.8311 24.9258L23.1487 21.1362L22.2552 20.7869C21.9022 20.0351 21.175 19.391 20.2472 19.0274C19.7559 18.8359 19.2287 18.7335 18.721 18.7335C17.5307 18.7335 16.5654 19.2706 16.2022 20.1346L16.0999 20.3807C15.7406 19.9715 15.2447 19.6221 14.6448 19.3843C14.8151 19.4471 14.9948 19.4815 15.183 19.4815C15.4384 19.4815 15.7102 19.4239 15.9945 19.3072C17.487 18.7005 19.1889 16.517 19.5794 15.5774L20.879 12.4723C21.6147 12.6256 22.9558 12.8538 24.4772 12.8747L25.4886 13.2704H25.4902L36.6331 17.6323C37.1783 17.8455 37.6047 18.224 37.8421 18.6998C37.8468 18.711 37.8554 18.7192 37.8593 18.7297C38.0147 19.0536 38.1506 19.5488 37.9273 20.0852ZM38.9239 15.6126L38.2943 17.1177C37.9679 16.8267 37.582 16.5888 37.1509 16.4205L27.4084 12.6069C27.5599 12.574 27.713 12.5433 27.859 12.5037C31.8751 11.4227 35.3788 8.40286 35.5264 8.27569C35.8052 8.03257 35.8255 7.61815 35.5725 7.3511C35.3186 7.0833 34.8875 7.0646 34.6071 7.30696C34.5735 7.33614 31.1995 10.2461 27.4912 11.244C26.6516 11.4691 25.6972 11.5776 24.6248 11.5679C22.495 11.5566 20.6689 11.0779 20.6502 11.0734C20.6174 11.0652 20.5853 11.0704 20.5525 11.0667C20.5065 11.0607 20.4619 11.0532 20.4174 11.0569C20.3745 11.0599 20.3346 11.0712 20.2932 11.0824C20.2503 11.0936 20.2073 11.1033 20.1659 11.1228C20.1284 11.14 20.0972 11.1647 20.0644 11.1894C20.0277 11.2155 19.9925 11.2402 19.9621 11.2731C19.9316 11.3046 19.9121 11.342 19.8887 11.3801C19.8723 11.4085 19.8465 11.4295 19.834 11.4609L18.3133 15.0919C18.0072 15.8265 16.4943 17.6832 15.4626 18.1028C15.2728 18.1792 15.1658 18.1769 15.1346 18.1649C14.2184 17.8066 13.717 16.9374 14.0099 16.2222C14.0114 16.22 14.013 16.2193 14.0138 16.217L17.7377 7.31145C17.8228 7.10798 17.9259 6.90377 18.0275 6.70104L18.1407 6.47139C18.1751 6.42202 18.2032 6.36816 18.2212 6.3128C18.2227 6.30981 18.2212 6.30607 18.2235 6.30383C20.708 1.97186 26.2533 0.151849 31.1542 2.0706L33.0591 2.81566C38.374 4.89525 41.0061 10.6358 38.9239 15.6111V15.6126Z" fill="#6E6D70"/>
<path d="M33.5754 1.60307L31.6705 0.85801C26.1244 -1.31359 19.8348 0.760762 17.0168 5.6822C16.9965 5.70987 16.9872 5.74354 16.9707 5.77421C16.8512 5.92232 16.7817 6.07193 16.731 6.18863L15.9257 8.11187L14.7792 7.66304L14.7761 7.66154C11.923 6.5462 8.72935 6.53797 6.01372 7.6406C3.54568 8.64224 1.65481 10.4637 0.690245 12.77C-1.4115 17.7954 1.47674 23.6833 7.12903 25.9013C7.13215 25.9013 7.13294 25.9043 7.13528 25.905L8.29432 26.3583L7.94364 27.1962C7.43129 28.4237 8.31151 29.8862 9.94932 30.528C10.4148 30.7098 10.9123 30.8063 11.3887 30.8063C11.8652 30.8063 12.2588 30.7195 12.6204 30.5646C12.9578 31.3097 13.6693 31.983 14.6566 32.3697C15.1588 32.5664 15.6961 32.6704 16.2085 32.6704C16.6326 32.6704 17.027 32.5986 17.3769 32.4677C17.6729 33.1709 18.3422 33.8127 19.2763 34.1785C19.7301 34.3558 20.2136 34.4493 20.6752 34.4493C21.0579 34.4493 21.4124 34.3842 21.728 34.2683C22.0045 34.9093 22.5699 35.4681 23.3549 35.7748C23.7368 35.9244 24.1328 36 24.5319 36C25.58 36 26.4852 35.4562 26.8375 34.6146L27.1358 33.9002L28.3839 34.3894C28.4854 34.4283 28.6213 34.4799 28.7916 34.5016C29.0212 34.5577 29.2524 34.5854 29.482 34.5854C30.6528 34.5854 31.7603 33.8748 32.2351 32.7377C32.5491 31.9912 32.5194 31.1923 32.2219 30.5011C33.1685 30.3051 34.0081 29.6498 34.408 28.6923C34.7407 27.8993 34.6883 27.0346 34.3283 26.3187C35.3436 26.1384 36.2129 25.5467 36.5886 24.6498C36.8893 23.9317 36.8159 23.1462 36.4628 22.4468C36.7854 22.4139 37.1025 22.3525 37.3977 22.2306C38.2381 21.9217 38.8778 21.3314 39.1964 20.5699C39.4753 19.9019 39.4667 19.1651 39.205 18.4619L40.1938 16.0973C42.5541 10.457 39.5854 3.9542 33.5769 1.60232L33.5754 1.60307ZM7.657 24.6947C7.657 24.6947 7.657 24.6947 7.65544 24.6947C2.68811 22.7505 0.133373 17.6204 1.95863 13.257C2.7873 11.2769 4.41652 9.71046 6.54717 8.84646C8.93242 7.87922 11.7441 7.8897 14.2629 8.87563L15.4188 9.32745L12.7415 15.7278C12.1682 17.1012 12.9977 18.7245 14.5902 19.3618C14.113 19.18 13.6108 19.0828 13.1343 19.0828C12.0268 19.0828 11.124 19.5967 10.7764 20.4248L8.80199 25.145L7.657 24.6962V24.6947ZM10.4664 29.3169C9.48461 28.9324 9.01833 28.1477 9.21281 27.6839L11.0631 23.2599C11.0654 23.2554 11.0685 23.2524 11.0709 23.248L12.0495 20.9088C12.0495 20.9088 12.0495 20.9058 12.0495 20.9043C12.1893 20.5826 12.5931 20.3904 13.1351 20.3904C13.4475 20.3904 13.7842 20.4577 14.1098 20.5849C14.9963 20.932 15.5571 21.674 15.3361 22.2052L12.5509 28.8651C12.5509 28.8651 12.5494 28.8703 12.5486 28.8733L12.5041 28.9803C12.2979 29.4688 11.3153 29.6505 10.4671 29.3169H10.4664ZM15.172 31.1586C14.1919 30.7748 13.5725 29.9505 13.8177 29.3565L16.6037 22.6944C16.6037 22.6944 16.6037 22.6921 16.6037 22.6914L17.4698 20.6208C17.6174 20.2685 18.1087 20.0418 18.7195 20.0418C19.0514 20.0418 19.4005 20.1099 19.7293 20.2378C20.2761 20.4517 20.7181 20.8273 20.9532 21.2484C20.9532 21.398 21.0133 21.5394 21.1102 21.6553C21.1367 21.793 21.1383 21.9224 21.0868 22.0451L19.1873 26.588C19.1873 26.588 19.1834 26.5947 19.1818 26.5985L17.4339 30.7778C17.1972 31.3374 16.1226 31.5296 15.1705 31.1571L15.172 31.1586ZM19.7934 32.9681C18.8811 32.6106 18.4367 31.9052 18.6093 31.4952L18.7038 31.2686C18.7038 31.2686 18.7054 31.2656 18.7062 31.2648L20.4557 27.0832C20.5479 26.8693 20.8501 26.7077 21.2266 26.6665C21.2484 26.6695 21.2711 26.6688 21.2937 26.6695C21.2969 26.6695 21.3 26.671 21.3023 26.671C21.3047 26.671 21.307 26.671 21.3101 26.671C21.3195 26.671 21.3281 26.6725 21.3383 26.671L21.4101 26.6695C21.6991 26.6695 22.0287 26.7361 22.3387 26.8588C22.6761 26.9912 22.987 27.1864 23.194 27.3996C23.49 27.6981 23.6079 28.0392 23.5033 28.2883L21.6585 32.6988C21.4781 33.1275 20.5744 33.2741 19.7934 32.9681ZM24.9013 28.132L25.3231 28.2966C25.1762 28.2936 25.0302 28.3025 24.8865 28.319C24.895 28.2577 24.9005 28.1948 24.9013 28.132ZM23.8703 34.5652C23.1737 34.2929 22.7675 33.6698 22.9253 33.1896C22.9253 33.1896 22.9253 33.1881 22.9253 33.1873L23.7594 31.1945L24.2046 30.13C24.2585 29.9999 24.3429 29.8981 24.4647 29.8129C24.6662 29.6752 24.9388 29.5997 25.2332 29.5997C25.455 29.5997 25.6745 29.6416 25.8862 29.7246C26.5953 30.0021 27.0171 30.6604 26.8078 31.1616L25.5667 34.1291C25.3574 34.6311 24.5733 34.8383 23.8703 34.5645V34.5652ZM30.9652 32.253C30.6489 33.0093 29.8452 33.4289 29.1001 33.2285C29.054 33.2157 29.0267 33.2113 28.9783 33.2083C28.9478 33.2008 28.9205 33.1881 28.8923 33.1776L27.6443 32.6876L28.0777 31.6493C28.4433 30.7763 28.1215 29.7755 27.3514 29.091L30.2677 30.2325C30.2677 30.2325 30.2732 30.2348 30.2755 30.2355C30.2982 30.2527 30.3216 30.2692 30.3466 30.2849C31.0144 30.6888 31.2745 31.5162 30.966 32.253H30.9652ZM33.1388 28.206C32.8154 28.981 32.0477 29.4044 31.2979 29.2211L27.827 27.8627L24.0625 26.389C23.736 26.0898 23.3166 25.8287 22.855 25.6477C22.3786 25.4599 21.8779 25.3612 21.4085 25.3612H21.3945C21.3632 25.356 21.3304 25.3567 21.2984 25.356C21.2867 25.356 21.2758 25.3537 21.2641 25.3537C21.2555 25.3537 21.2492 25.3522 21.2406 25.3522C21.218 25.3537 21.1969 25.3582 21.1735 25.3597L22.3559 22.5328C22.3919 22.4475 22.4145 22.3585 22.4372 22.2717L32.3273 26.1429C32.3421 26.1489 32.3578 26.1549 32.3726 26.1601C32.4163 26.2065 32.4687 26.2469 32.5257 26.2783C33.1802 26.6501 33.4434 27.4782 33.138 28.206H33.1388ZM37.9273 20.0852C37.7015 20.6223 37.2485 20.8849 36.8838 21.0188C36.3722 21.229 35.7997 21.2237 35.2358 21.0023L34.49 20.7106C34.49 20.7106 34.49 20.7106 34.4884 20.7106L31.8626 19.682L24.0914 16.6404H24.089L23.6431 16.4654C23.2924 16.3285 22.8948 16.4893 22.7519 16.8244C22.609 17.1596 22.7769 17.5411 23.1268 17.6772L29.7991 20.2887L33.9745 21.9239C35.0375 22.3413 35.6545 23.3661 35.3202 24.1628C34.9851 24.9632 33.862 25.3006 32.8311 24.9258L23.1487 21.1362L22.2552 20.7869C21.9022 20.0351 21.175 19.391 20.2472 19.0274C19.7559 18.8359 19.2287 18.7335 18.721 18.7335C17.5307 18.7335 16.5654 19.2706 16.2022 20.1346L16.0999 20.3807C15.7406 19.9715 15.2447 19.6221 14.6448 19.3843C14.8151 19.4471 14.9948 19.4815 15.183 19.4815C15.4384 19.4815 15.7102 19.4239 15.9945 19.3072C17.487 18.7005 19.1889 16.517 19.5794 15.5774L20.879 12.4723C21.6147 12.6256 22.9558 12.8538 24.4772 12.8747L25.4886 13.2704H25.4902L36.6331 17.6323C37.1783 17.8455 37.6047 18.224 37.8421 18.6998C37.8468 18.711 37.8554 18.7192 37.8593 18.7297C38.0147 19.0536 38.1506 19.5488 37.9273 20.0852ZM38.9239 15.6126L38.2943 17.1177C37.9679 16.8267 37.582 16.5888 37.1509 16.4205L27.4084 12.6069C27.5599 12.574 27.713 12.5433 27.859 12.5037C31.8751 11.4227 35.3788 8.40286 35.5264 8.27569C35.8052 8.03257 35.8255 7.61815 35.5725 7.3511C35.3186 7.0833 34.8875 7.0646 34.6071 7.30696C34.5735 7.33614 31.1995 10.2461 27.4912 11.244C26.6516 11.4691 25.6972 11.5776 24.6248 11.5679C22.495 11.5566 20.6689 11.0779 20.6502 11.0734C20.6174 11.0652 20.5853 11.0704 20.5525 11.0667C20.5065 11.0607 20.4619 11.0532 20.4174 11.0569C20.3745 11.0599 20.3346 11.0712 20.2932 11.0824C20.2503 11.0936 20.2073 11.1033 20.1659 11.1228C20.1284 11.14 20.0972 11.1647 20.0644 11.1894C20.0277 11.2155 19.9925 11.2402 19.9621 11.2731C19.9316 11.3046 19.9121 11.342 19.8887 11.3801C19.8723 11.4085 19.8465 11.4295 19.834 11.4609L18.3133 15.0919C18.0072 15.8265 16.4943 17.6832 15.4626 18.1028C15.2728 18.1792 15.1658 18.1769 15.1346 18.1649C14.2184 17.8066 13.717 16.9374 14.0099 16.2222C14.0114 16.22 14.013 16.2193 14.0138 16.217L17.7377 7.31145C17.8228 7.10798 17.9259 6.90377 18.0275 6.70104L18.1407 6.47139C18.1751 6.42202 18.2032 6.36816 18.2212 6.3128C18.2227 6.30981 18.2212 6.30607 18.2235 6.30383C20.708 1.97186 26.2533 0.151849 31.1542 2.0706L33.0591 2.81566C38.374 4.89525 41.0061 10.6358 38.9239 15.6111V15.6126Z" stroke="#6E6D70" stroke-width="0.2" mask="url(#path-1-outside-1_53710_77307)"/>
</g>
<defs>
<clipPath id="clip0_53710_77307">
<rect width="41" height="36" fill="white"/>
</clipPath>
</defs>
</svg>
