<svg width="33" height="35" viewBox="0 0 33 35" fill="none" xmlns="http://www.w3.org/2000/svg">
<g clip-path="url(#clip0_53710_77294)">
<path d="M27.3079 0.600965C27.3053 0.775228 27.4351 0.942118 27.5998 0.97496L30.2411 1.88984L1.91019 16.7913C1.7171 16.8603 1.61377 17.1211 1.70353 17.3114C1.7933 17.5018 2.05549 17.5762 2.22598 17.4595L30.3089 2.68676L29.6883 4.89118C29.6095 5.08488 29.7245 5.33756 29.9189 5.39721C30.1132 5.45686 30.3418 5.31008 30.3767 5.10231L31.3138 1.85499C31.3693 1.66799 31.2569 1.4448 31.0768 1.38582C29.9634 1.00914 28.8339 0.591582 27.7245 0.237024C27.4816 0.215576 27.3215 0.403914 27.3086 0.600965H27.3079ZM25.8387 7.75244C25.6734 7.78528 25.5423 7.95217 25.5455 8.12777V34.0138H23.3783V14.1291C23.3783 13.9327 23.2065 13.7538 23.0173 13.7538H17.8929C17.7276 13.7866 17.5965 13.9535 17.5997 14.1291V34.0138H15.4324V18.6318C15.4324 18.4354 15.2607 18.2565 15.0714 18.2565H9.94708C9.78175 18.2893 9.65066 18.4562 9.65389 18.6318V34.0138H7.48661V23.1338C7.48661 22.9374 7.31483 22.7585 7.12561 22.7585H1.99995C1.83463 22.7913 1.70353 22.9582 1.70676 23.1338V34.0138H0.555315C0.366098 34.0319 0.210462 34.2276 0.227898 34.424C0.245335 34.6204 0.433906 34.7826 0.623123 34.7638H32.4084C32.5989 34.7672 32.7746 34.5869 32.7746 34.3885C32.7746 34.1901 32.5989 34.0105 32.4084 34.0132H31.3247V8.1271C31.3247 7.93072 31.153 7.75177 30.9637 7.75177H25.8394L25.8387 7.75244ZM26.2675 8.50311H30.6021V34.0145H26.2675V8.50244V8.50311ZM18.3211 14.5058H22.6556V34.0145H18.3211V14.5051V14.5058ZM10.3746 19.0078H14.7092V34.0152H10.3746V19.0078ZM2.42811 23.5098H6.76267V34.0145H2.42876V23.5098H2.42811Z" fill="#6E6D70"/>
<mask id="path-2-outside-1_53710_77294" maskUnits="userSpaceOnUse" x="-1" y="-1" width="35" height="37" fill="black">
<rect fill="white" x="-1" y="-1" width="35" height="37"/>
<path d="M0.593909 35.0005C0.46023 35.0005 0.324614 34.9488 0.216121 34.8557C0.094066 34.7505 0.0159251 34.6017 0.00236349 34.4462C-0.0118439 34.2913 0.0385279 34.1298 0.139272 34.0031C0.240661 33.8765 0.384027 33.7954 0.533851 33.7806L0.555162 33.7793H1.48058V23.1338C1.47542 22.8503 1.6853 22.5829 1.95718 22.5279L1.97849 22.5239H7.12352C7.43608 22.5239 7.71054 22.8088 7.71054 23.1338V33.7793H9.42577V18.6318C9.4206 18.3483 9.63048 18.0802 9.90236 18.0266L9.92367 18.0226H15.07C15.3826 18.0226 15.657 18.3074 15.657 18.6325V33.7799H17.3722V14.1291C17.3671 13.8456 17.577 13.5775 17.8488 13.5239L17.8702 13.5199H23.0158C23.3284 13.5199 23.6029 13.8047 23.6029 14.1298V33.7793H25.3181V8.12713C25.3129 7.84362 25.5228 7.57553 25.7947 7.52191L25.816 7.51789H30.9623C31.2749 7.51789 31.5493 7.80274 31.5493 8.1278V33.7793H32.4069C32.4069 33.7793 32.4121 33.7793 32.414 33.7793C32.5594 33.7793 32.7079 33.8443 32.8196 33.9589C32.9333 34.0755 32.9985 34.2324 32.9985 34.3892C32.9985 34.546 32.9326 34.7042 32.8183 34.8208C32.7047 34.9368 32.5529 35.0005 32.4024 34.9991H0.631365C0.619095 34.9998 0.60618 35.0005 0.593909 35.0005ZM0.568724 34.2484C0.540309 34.2538 0.510602 34.2732 0.487999 34.3021C0.462814 34.3329 0.449898 34.3711 0.453127 34.4026C0.45571 34.4341 0.475729 34.469 0.505436 34.4944C0.535142 34.5206 0.571952 34.534 0.601659 34.5306L0.62297 34.5293H32.4076C32.4425 34.5306 32.4754 34.5139 32.5032 34.4857C32.5316 34.4569 32.5484 34.4207 32.5484 34.3885C32.5484 34.3564 32.5316 34.3208 32.5038 34.2927C32.4767 34.2645 32.4425 34.2484 32.4128 34.2484C32.4128 34.2484 32.4121 34.2484 32.4115 34.2484H31.0986V8.12713C31.0986 8.06011 31.0275 7.98638 30.9636 7.98638H25.867C25.8153 8.00515 25.7708 8.06748 25.7721 8.12244V34.2484H23.1527V14.1291C23.1527 14.0621 23.0817 13.9884 23.0178 13.9884H17.9212C17.8695 14.0072 17.8249 14.0695 17.8262 14.1245V34.2484H15.2069V18.6318C15.2069 18.5648 15.1359 18.4911 15.0719 18.4911H9.97534C9.92367 18.5098 9.87911 18.5722 9.88041 18.6271V34.2478H7.26107V23.1332C7.26107 23.0661 7.19003 22.9924 7.1261 22.9924H2.02692C1.97526 23.0112 1.9307 23.0735 1.93199 23.1291V34.2478L0.568724 34.2484ZM14.935 34.2491H10.1484V18.7726H14.935V34.2491ZM10.6005 33.7799H14.483V19.2417H10.6005V33.7799ZM22.8815 34.2491H18.0949V14.2706H22.8815V34.2491ZM18.5469 33.7799H22.4294V14.7397H18.5469V33.7799ZM30.828 34.2491H26.0414V8.26788H30.828V34.2491ZM26.4934 33.7799H30.3759V8.73705H26.4934V33.7799ZM6.98855 34.2491H2.20193V23.2753H6.9879L6.98855 34.2491ZM2.65399 33.7799H6.53649V23.7444H2.65399V33.7799ZM2.03855 17.7505C1.9843 17.7505 1.92941 17.7431 1.87516 17.7277C1.70855 17.6808 1.57164 17.5668 1.49996 17.4153C1.42827 17.2639 1.42504 17.0822 1.49092 16.916C1.5542 16.7565 1.67367 16.6332 1.81898 16.5755L29.6552 1.93478L27.5396 1.2022C27.2774 1.14054 27.0772 0.878475 27.0811 0.597644L27.083 0.47633L27.1024 0.462925C27.134 0.341612 27.2006 0.231022 27.2929 0.148582C27.4156 0.0393329 27.5751 -0.0122757 27.7437 0.00246964L27.7676 0.00448036L27.7908 0.011853C28.4728 0.229681 29.1722 0.47499 29.8483 0.711585C30.2752 0.861049 30.7163 1.01587 31.147 1.16132C31.4421 1.25716 31.6223 1.61373 31.53 1.92271L30.5968 5.1573C30.5651 5.31614 30.4676 5.45756 30.3262 5.54872C30.1809 5.64188 30.0085 5.66869 29.8548 5.6211C29.7004 5.57418 29.57 5.45488 29.497 5.29402C29.426 5.13853 29.4182 4.9636 29.4744 4.81279L29.9458 3.13987L2.33755 17.6633C2.24908 17.7203 2.1451 17.7505 2.03855 17.7505ZM27.5331 0.61373C27.537 0.672041 27.588 0.734373 27.6416 0.745097L27.6701 0.75314L30.8248 1.84563L1.98301 17.0132C1.9533 17.0239 1.92489 17.0554 1.90939 17.095C1.89324 17.1352 1.89195 17.1787 1.90616 17.2082C1.92037 17.2377 1.95395 17.2632 1.99399 17.2746C2.03403 17.286 2.07536 17.282 2.10119 17.2639L2.12315 17.2505L30.6717 2.23236L29.8955 4.98169C29.8832 5.01185 29.8864 5.05475 29.9045 5.09362C29.9219 5.1325 29.9516 5.16199 29.982 5.17137C30.0123 5.18075 30.0524 5.17271 30.0879 5.14992C30.1234 5.12713 30.1486 5.09295 30.1538 5.06078L30.1596 5.03464L31.0966 1.78732C31.116 1.72164 31.0695 1.62982 31.0082 1.60971C30.5729 1.46226 30.1305 1.30743 29.7024 1.1573C29.0378 0.924051 28.3514 0.683435 27.6843 0.469628C27.6455 0.469628 27.6132 0.481692 27.5867 0.505151C27.557 0.53196 27.537 0.572175 27.5331 0.61373Z"/>
</mask>
<path d="M0.593909 35.0005C0.46023 35.0005 0.324614 34.9488 0.216121 34.8557C0.094066 34.7505 0.0159251 34.6017 0.00236349 34.4462C-0.0118439 34.2913 0.0385279 34.1298 0.139272 34.0031C0.240661 33.8765 0.384027 33.7954 0.533851 33.7806L0.555162 33.7793H1.48058V23.1338C1.47542 22.8503 1.6853 22.5829 1.95718 22.5279L1.97849 22.5239H7.12352C7.43608 22.5239 7.71054 22.8088 7.71054 23.1338V33.7793H9.42577V18.6318C9.4206 18.3483 9.63048 18.0802 9.90236 18.0266L9.92367 18.0226H15.07C15.3826 18.0226 15.657 18.3074 15.657 18.6325V33.7799H17.3722V14.1291C17.3671 13.8456 17.577 13.5775 17.8488 13.5239L17.8702 13.5199H23.0158C23.3284 13.5199 23.6029 13.8047 23.6029 14.1298V33.7793H25.3181V8.12713C25.3129 7.84362 25.5228 7.57553 25.7947 7.52191L25.816 7.51789H30.9623C31.2749 7.51789 31.5493 7.80274 31.5493 8.1278V33.7793H32.4069C32.4069 33.7793 32.4121 33.7793 32.414 33.7793C32.5594 33.7793 32.7079 33.8443 32.8196 33.9589C32.9333 34.0755 32.9985 34.2324 32.9985 34.3892C32.9985 34.546 32.9326 34.7042 32.8183 34.8208C32.7047 34.9368 32.5529 35.0005 32.4024 34.9991H0.631365C0.619095 34.9998 0.60618 35.0005 0.593909 35.0005ZM0.568724 34.2484C0.540309 34.2538 0.510602 34.2732 0.487999 34.3021C0.462814 34.3329 0.449898 34.3711 0.453127 34.4026C0.45571 34.4341 0.475729 34.469 0.505436 34.4944C0.535142 34.5206 0.571952 34.534 0.601659 34.5306L0.62297 34.5293H32.4076C32.4425 34.5306 32.4754 34.5139 32.5032 34.4857C32.5316 34.4569 32.5484 34.4207 32.5484 34.3885C32.5484 34.3564 32.5316 34.3208 32.5038 34.2927C32.4767 34.2645 32.4425 34.2484 32.4128 34.2484C32.4128 34.2484 32.4121 34.2484 32.4115 34.2484H31.0986V8.12713C31.0986 8.06011 31.0275 7.98638 30.9636 7.98638H25.867C25.8153 8.00515 25.7708 8.06748 25.7721 8.12244V34.2484H23.1527V14.1291C23.1527 14.0621 23.0817 13.9884 23.0178 13.9884H17.9212C17.8695 14.0072 17.8249 14.0695 17.8262 14.1245V34.2484H15.2069V18.6318C15.2069 18.5648 15.1359 18.4911 15.0719 18.4911H9.97534C9.92367 18.5098 9.87911 18.5722 9.88041 18.6271V34.2478H7.26107V23.1332C7.26107 23.0661 7.19003 22.9924 7.1261 22.9924H2.02692C1.97526 23.0112 1.9307 23.0735 1.93199 23.1291V34.2478L0.568724 34.2484ZM14.935 34.2491H10.1484V18.7726H14.935V34.2491ZM10.6005 33.7799H14.483V19.2417H10.6005V33.7799ZM22.8815 34.2491H18.0949V14.2706H22.8815V34.2491ZM18.5469 33.7799H22.4294V14.7397H18.5469V33.7799ZM30.828 34.2491H26.0414V8.26788H30.828V34.2491ZM26.4934 33.7799H30.3759V8.73705H26.4934V33.7799ZM6.98855 34.2491H2.20193V23.2753H6.9879L6.98855 34.2491ZM2.65399 33.7799H6.53649V23.7444H2.65399V33.7799ZM2.03855 17.7505C1.9843 17.7505 1.92941 17.7431 1.87516 17.7277C1.70855 17.6808 1.57164 17.5668 1.49996 17.4153C1.42827 17.2639 1.42504 17.0822 1.49092 16.916C1.5542 16.7565 1.67367 16.6332 1.81898 16.5755L29.6552 1.93478L27.5396 1.2022C27.2774 1.14054 27.0772 0.878475 27.0811 0.597644L27.083 0.47633L27.1024 0.462925C27.134 0.341612 27.2006 0.231022 27.2929 0.148582C27.4156 0.0393329 27.5751 -0.0122757 27.7437 0.00246964L27.7676 0.00448036L27.7908 0.011853C28.4728 0.229681 29.1722 0.47499 29.8483 0.711585C30.2752 0.861049 30.7163 1.01587 31.147 1.16132C31.4421 1.25716 31.6223 1.61373 31.53 1.92271L30.5968 5.1573C30.5651 5.31614 30.4676 5.45756 30.3262 5.54872C30.1809 5.64188 30.0085 5.66869 29.8548 5.6211C29.7004 5.57418 29.57 5.45488 29.497 5.29402C29.426 5.13853 29.4182 4.9636 29.4744 4.81279L29.9458 3.13987L2.33755 17.6633C2.24908 17.7203 2.1451 17.7505 2.03855 17.7505ZM27.5331 0.61373C27.537 0.672041 27.588 0.734373 27.6416 0.745097L27.6701 0.75314L30.8248 1.84563L1.98301 17.0132C1.9533 17.0239 1.92489 17.0554 1.90939 17.095C1.89324 17.1352 1.89195 17.1787 1.90616 17.2082C1.92037 17.2377 1.95395 17.2632 1.99399 17.2746C2.03403 17.286 2.07536 17.282 2.10119 17.2639L2.12315 17.2505L30.6717 2.23236L29.8955 4.98169C29.8832 5.01185 29.8864 5.05475 29.9045 5.09362C29.9219 5.1325 29.9516 5.16199 29.982 5.17137C30.0123 5.18075 30.0524 5.17271 30.0879 5.14992C30.1234 5.12713 30.1486 5.09295 30.1538 5.06078L30.1596 5.03464L31.0966 1.78732C31.116 1.72164 31.0695 1.62982 31.0082 1.60971C30.5729 1.46226 30.1305 1.30743 29.7024 1.1573C29.0378 0.924051 28.3514 0.683435 27.6843 0.469628C27.6455 0.469628 27.6132 0.481692 27.5867 0.505151C27.557 0.53196 27.537 0.572175 27.5331 0.61373Z" fill="#6E6D70"/>
<path d="M0.593909 35.0005C0.46023 35.0005 0.324614 34.9488 0.216121 34.8557C0.094066 34.7505 0.0159251 34.6017 0.00236349 34.4462C-0.0118439 34.2913 0.0385279 34.1298 0.139272 34.0031C0.240661 33.8765 0.384027 33.7954 0.533851 33.7806L0.555162 33.7793H1.48058V23.1338C1.47542 22.8503 1.6853 22.5829 1.95718 22.5279L1.97849 22.5239H7.12352C7.43608 22.5239 7.71054 22.8088 7.71054 23.1338V33.7793H9.42577V18.6318C9.4206 18.3483 9.63048 18.0802 9.90236 18.0266L9.92367 18.0226H15.07C15.3826 18.0226 15.657 18.3074 15.657 18.6325V33.7799H17.3722V14.1291C17.3671 13.8456 17.577 13.5775 17.8488 13.5239L17.8702 13.5199H23.0158C23.3284 13.5199 23.6029 13.8047 23.6029 14.1298V33.7793H25.3181V8.12713C25.3129 7.84362 25.5228 7.57553 25.7947 7.52191L25.816 7.51789H30.9623C31.2749 7.51789 31.5493 7.80274 31.5493 8.1278V33.7793H32.4069C32.4069 33.7793 32.4121 33.7793 32.414 33.7793C32.5594 33.7793 32.7079 33.8443 32.8196 33.9589C32.9333 34.0755 32.9985 34.2324 32.9985 34.3892C32.9985 34.546 32.9326 34.7042 32.8183 34.8208C32.7047 34.9368 32.5529 35.0005 32.4024 34.9991H0.631365C0.619095 34.9998 0.60618 35.0005 0.593909 35.0005ZM0.568724 34.2484C0.540309 34.2538 0.510602 34.2732 0.487999 34.3021C0.462814 34.3329 0.449898 34.3711 0.453127 34.4026C0.45571 34.4341 0.475729 34.469 0.505436 34.4944C0.535142 34.5206 0.571952 34.534 0.601659 34.5306L0.62297 34.5293H32.4076C32.4425 34.5306 32.4754 34.5139 32.5032 34.4857C32.5316 34.4569 32.5484 34.4207 32.5484 34.3885C32.5484 34.3564 32.5316 34.3208 32.5038 34.2927C32.4767 34.2645 32.4425 34.2484 32.4128 34.2484C32.4128 34.2484 32.4121 34.2484 32.4115 34.2484H31.0986V8.12713C31.0986 8.06011 31.0275 7.98638 30.9636 7.98638H25.867C25.8153 8.00515 25.7708 8.06748 25.7721 8.12244V34.2484H23.1527V14.1291C23.1527 14.0621 23.0817 13.9884 23.0178 13.9884H17.9212C17.8695 14.0072 17.8249 14.0695 17.8262 14.1245V34.2484H15.2069V18.6318C15.2069 18.5648 15.1359 18.4911 15.0719 18.4911H9.97534C9.92367 18.5098 9.87911 18.5722 9.88041 18.6271V34.2478H7.26107V23.1332C7.26107 23.0661 7.19003 22.9924 7.1261 22.9924H2.02692C1.97526 23.0112 1.9307 23.0735 1.93199 23.1291V34.2478L0.568724 34.2484ZM14.935 34.2491H10.1484V18.7726H14.935V34.2491ZM10.6005 33.7799H14.483V19.2417H10.6005V33.7799ZM22.8815 34.2491H18.0949V14.2706H22.8815V34.2491ZM18.5469 33.7799H22.4294V14.7397H18.5469V33.7799ZM30.828 34.2491H26.0414V8.26788H30.828V34.2491ZM26.4934 33.7799H30.3759V8.73705H26.4934V33.7799ZM6.98855 34.2491H2.20193V23.2753H6.9879L6.98855 34.2491ZM2.65399 33.7799H6.53649V23.7444H2.65399V33.7799ZM2.03855 17.7505C1.9843 17.7505 1.92941 17.7431 1.87516 17.7277C1.70855 17.6808 1.57164 17.5668 1.49996 17.4153C1.42827 17.2639 1.42504 17.0822 1.49092 16.916C1.5542 16.7565 1.67367 16.6332 1.81898 16.5755L29.6552 1.93478L27.5396 1.2022C27.2774 1.14054 27.0772 0.878475 27.0811 0.597644L27.083 0.47633L27.1024 0.462925C27.134 0.341612 27.2006 0.231022 27.2929 0.148582C27.4156 0.0393329 27.5751 -0.0122757 27.7437 0.00246964L27.7676 0.00448036L27.7908 0.011853C28.4728 0.229681 29.1722 0.47499 29.8483 0.711585C30.2752 0.861049 30.7163 1.01587 31.147 1.16132C31.4421 1.25716 31.6223 1.61373 31.53 1.92271L30.5968 5.1573C30.5651 5.31614 30.4676 5.45756 30.3262 5.54872C30.1809 5.64188 30.0085 5.66869 29.8548 5.6211C29.7004 5.57418 29.57 5.45488 29.497 5.29402C29.426 5.13853 29.4182 4.9636 29.4744 4.81279L29.9458 3.13987L2.33755 17.6633C2.24908 17.7203 2.1451 17.7505 2.03855 17.7505ZM27.5331 0.61373C27.537 0.672041 27.588 0.734373 27.6416 0.745097L27.6701 0.75314L30.8248 1.84563L1.98301 17.0132C1.9533 17.0239 1.92489 17.0554 1.90939 17.095C1.89324 17.1352 1.89195 17.1787 1.90616 17.2082C1.92037 17.2377 1.95395 17.2632 1.99399 17.2746C2.03403 17.286 2.07536 17.282 2.10119 17.2639L2.12315 17.2505L30.6717 2.23236L29.8955 4.98169C29.8832 5.01185 29.8864 5.05475 29.9045 5.09362C29.9219 5.1325 29.9516 5.16199 29.982 5.17137C30.0123 5.18075 30.0524 5.17271 30.0879 5.14992C30.1234 5.12713 30.1486 5.09295 30.1538 5.06078L30.1596 5.03464L31.0966 1.78732C31.116 1.72164 31.0695 1.62982 31.0082 1.60971C30.5729 1.46226 30.1305 1.30743 29.7024 1.1573C29.0378 0.924051 28.3514 0.683435 27.6843 0.469628C27.6455 0.469628 27.6132 0.481692 27.5867 0.505151C27.557 0.53196 27.537 0.572175 27.5331 0.61373Z" stroke="#6E6D70" stroke-width="0.4" mask="url(#path-2-outside-1_53710_77294)"/>
</g>
<defs>
<clipPath id="clip0_53710_77294">
<rect width="33" height="35" fill="white"/>
</clipPath>
</defs>
</svg>
