<svg width="49" height="33" viewBox="0 0 49 33" fill="none" xmlns="http://www.w3.org/2000/svg">
<g clip-path="url(#clip0_53710_77297)">
<path d="M48.9998 21.4826V20.4133C48.9998 19.6991 48.7254 19.0137 48.2382 18.509C47.7519 18.0043 47.0917 17.7194 46.4036 17.7184C46.0755 17.7194 45.7553 17.6183 45.4838 17.4284C45.2124 17.2385 45.0016 16.9681 44.8803 16.6522L43.0636 11.9984C42.8707 11.4999 42.5376 11.0726 42.1081 10.7722C41.6785 10.4719 41.1724 10.3119 40.6543 10.314H34.7967C34.3353 10.314 33.9614 10.7021 33.9614 11.181V20.6269H32.3934V0.866981C32.3934 0.388077 32.0195 0 31.5581 0H10.4682C10.0068 0 9.63297 0.388077 9.63297 0.866981V6.8636C9.63297 7.34251 10.0068 7.73058 10.4682 7.73058C10.9296 7.73058 11.3035 7.34251 11.3035 6.8636V1.73396H17.8253V6.39708C17.8253 6.87599 18.1992 7.26407 18.6606 7.26407H23.3588C23.8202 7.26407 24.1941 6.87599 24.1941 6.39708V1.73396H30.7229V20.6269H11.3035V15.7966H14.4774C14.9388 15.7966 15.3126 15.4085 15.3126 14.9296C15.3126 14.4507 14.9388 14.0626 14.4774 14.0626H6.25321C5.79184 14.0626 5.41797 14.4507 5.41797 14.9296C5.41797 15.4085 5.79184 15.7966 6.25321 15.7966H9.63197V20.6269H8.50837C8.047 20.6269 7.67313 21.015 7.67313 21.4939V28.3369C7.67313 28.8158 8.047 29.2039 8.50837 29.2039H11.5292C11.6584 30.5941 12.445 31.8265 13.6272 32.4922C14.8105 33.1579 16.2344 33.1703 17.4276 32.5252C18.6208 31.8801 19.4272 30.6612 19.5783 29.273C19.7295 27.8848 19.2075 26.51 18.1833 25.6038C17.1601 24.6976 15.769 24.3787 14.4724 24.7523C13.1758 25.1259 12.1437 26.1446 11.7181 27.4699H9.34362V22.3609H33.9595V24.9144C33.9595 25.3933 34.3333 25.7813 34.7947 25.7813C35.2561 25.7813 35.6299 25.3933 35.6299 24.9144V12.0479H40.6514C41.0302 12.0469 41.3703 12.2853 41.5115 12.6497L43.3281 17.3035C43.5747 17.9393 43.9993 18.4853 44.5462 18.8682C45.0941 19.2511 45.7404 19.4544 46.4006 19.4524C46.9117 19.4524 47.3273 19.8828 47.3273 20.4133V27.4689H44.4935C44.0679 26.1477 43.0378 25.1321 41.7441 24.7595C40.4515 24.3869 39.0644 24.7048 38.0432 25.609C37.022 26.5131 36.501 27.8848 36.6521 29.2689C36.8033 30.653 37.6077 31.8688 38.7969 32.5128C39.9871 33.1569 41.4071 33.1445 42.5873 32.4819C43.7676 31.8182 44.5521 30.589 44.6824 29.2028H48.1626C48.624 29.2028 48.9978 28.8147 48.9978 28.3358V21.4826H48.9998ZM22.5216 5.5301H19.4938V1.73396H22.5216V5.5301ZM15.5513 26.3325C16.1807 26.3325 16.7833 26.5926 17.2287 27.0539C17.6732 27.5153 17.9228 28.1418 17.9228 28.7941C17.9228 29.4464 17.6732 30.0729 17.2277 30.5353C16.7833 30.9967 16.1797 31.2557 15.5513 31.2557C14.9219 31.2557 14.3183 30.9956 13.8738 30.5343C13.4294 30.0719 13.1798 29.4464 13.1798 28.7931C13.1798 28.1408 13.4303 27.5143 13.8748 27.0529C14.3193 26.5916 14.9228 26.3325 15.5503 26.3315L15.5513 26.3325ZM40.6643 31.2547C40.0359 31.2547 39.4323 30.9956 38.9868 30.5343C38.5424 30.0729 38.2928 29.4464 38.2928 28.7941C38.2928 28.1418 38.5424 27.5153 38.9868 27.0529C39.4313 26.5916 40.0349 26.3325 40.6643 26.3325C41.2937 26.3325 41.8963 26.5916 42.3407 27.0529C42.7852 27.5143 43.0358 28.1408 43.0358 28.7941C43.0358 29.4464 42.7852 30.0729 42.3397 30.5343C41.8943 30.9956 41.2917 31.2547 40.6623 31.2547H40.6633H40.6643Z" fill="#6E6D70"/>
<path d="M34.7965 27.4688H21.011C20.5497 27.4688 20.1758 27.8568 20.1758 28.3357C20.1758 28.8146 20.5497 29.2027 21.011 29.2027H34.7965C35.2579 29.2027 35.6318 28.8146 35.6318 28.3357C35.6318 27.8568 35.2579 27.4688 34.7965 27.4688Z" fill="#6E6D70"/>
<path d="M39.8334 17.8124H38.136C37.6747 17.8124 37.3008 18.2005 37.3008 18.6794C37.3008 19.1583 37.6747 19.5464 38.136 19.5464H39.8334C40.252 19.5464 40.6587 19.3926 40.9788 19.1119C41.299 18.8312 41.5128 18.442 41.5824 18.0127C41.652 17.5833 41.5735 17.1426 41.3607 16.769L39.5788 13.6447C39.3431 13.2329 38.8311 13.0967 38.4333 13.3413C38.0366 13.5859 37.9063 14.1175 38.141 14.5303L39.9229 17.6514C39.9417 17.6845 39.9417 17.7257 39.9229 17.7588C39.905 17.7918 39.8701 17.8124 39.8334 17.8124Z" fill="#6E6D70"/>
<path d="M7.69916 5.95271C8.16053 5.95271 8.53441 5.56464 8.53441 5.08573C8.53441 4.60683 8.16053 4.21875 7.69916 4.21875H0.835244C0.373871 4.21875 0 4.60683 0 5.08573C0 5.56464 0.373871 5.95271 0.835244 5.95271H7.69916Z" fill="#6E6D70"/>
<path d="M10.468 12.9835C10.9293 12.9835 11.3032 12.5954 11.3032 12.1165V10.1482C11.3032 9.66933 10.9293 9.28125 10.468 9.28125H4.62821C4.16684 9.28125 3.79297 9.66933 3.79297 10.1482C3.79297 10.6271 4.16684 11.0152 4.62821 11.0152H9.63272V12.1175C9.63272 12.5964 10.0066 12.9845 10.468 12.9845V12.9835Z" fill="#6E6D70"/>
<path d="M7.06554 17.1807H1.5579C1.09653 17.1807 0.722656 17.5687 0.722656 18.0476C0.722656 18.5265 1.09653 18.9146 1.5579 18.9146H7.06753C7.5289 18.9146 7.90277 18.5265 7.90277 18.0476C7.90277 17.5687 7.5289 17.1807 7.06753 17.1807H7.06653H7.06554Z" fill="#6E6D70"/>
</g>
<defs>
<clipPath id="clip0_53710_77297">
<rect width="49" height="33" fill="white"/>
</clipPath>
</defs>
</svg>
