<svg xmlns="http://www.w3.org/2000/svg" width="24" height="24" viewBox="0 0 24 24" fill="none">
<path d="M12.7903 0.632827L15.6048 0.632812C15.808 1.64888 16.3722 2.93074 17.359 4.20242C18.326 5.44848 19.6073 6.31704 21.3166 6.31704V9.15914C18.825 9.15914 16.9526 8.00303 15.6324 6.56059V16.2644C15.6324 20.1885 12.4513 23.3697 8.52714 23.3697C4.60301 23.3697 1.42188 20.1885 1.42188 16.2644C1.42188 12.3403 4.60301 9.15914 8.52714 9.15914V12.0013C6.17266 12.0013 4.26398 13.9099 4.26398 16.2644C4.26398 18.6189 6.17266 20.5276 8.52714 20.5276C10.8816 20.5276 12.7903 18.6189 12.7903 16.2644V0.632827Z" fill="#1C1B1F"/>
</svg>