<svg width="24" height="24" viewBox="0 0 24 24" fill="none" xmlns="http://www.w3.org/2000/svg">
<path d="M13.5 1.52886e-05L16.4709 0C16.6854 1.07252 17.2809 2.42559 18.3225 3.76792C19.3432 5.0832 20.6957 6.00002 22.5 6.00002V9.00002C19.8699 9.00002 17.8936 7.77967 16.5 6.25709V16.5C16.5 20.6422 13.1421 24 9 24C4.85786 24 1.5 20.6422 1.5 16.5C1.5 12.3579 4.85786 9.00002 9 9.00002V12C6.51472 12 4.5 14.0147 4.5 16.5C4.5 18.9853 6.51472 21 9 21C11.4853 21 13.5 18.9853 13.5 16.5V1.52886e-05Z" fill="#1C1B1F" fill-opacity="0.64"/>
</svg>
